<svg width="20" height="24" viewBox="0 0 20 24" fill="none" xmlns="http://www.w3.org/2000/svg">
<path d="M16.6638 22.7862C15.3715 24.0389 13.9605 23.8411 12.6023 23.2477C11.165 22.6411 9.84637 22.6148 8.32993 23.2477C6.43108 24.0653 5.42891 23.8279 4.29487 22.7862C-2.14012 16.1534 -1.19069 6.05258 6.1146 5.68336C7.89477 5.77567 9.1343 6.65916 10.176 6.73828C11.732 6.4218 13.2221 5.51194 14.8836 5.63062C16.8748 5.78885 18.378 6.58004 19.367 8.00418C15.2528 10.47 16.2286 15.8897 19.9999 17.4061C19.2483 19.3841 18.2725 21.3489 16.6506 22.7994L16.6638 22.7862ZM10.0442 5.60424C9.84637 2.66366 12.2331 0.237356 14.9759 0C15.3583 3.40211 11.8903 5.9339 10.0442 5.60424Z" fill="white"/>
</svg>
