<svg width="24" height="25" viewBox="0 0 24 25" fill="none" xmlns="http://www.w3.org/2000/svg">
<path fill-rule="evenodd" clip-rule="evenodd" d="M5.47007 5.78757C5.6107 5.64712 5.80132 5.56823 6.00007 5.56823C6.19882 5.56823 6.38945 5.64712 6.53007 5.78757L12.0001 11.2576L17.4701 5.78757C17.5387 5.71388 17.6215 5.65478 17.7135 5.61379C17.8055 5.57279 17.9048 5.55075 18.0056 5.54898C18.1063 5.5472 18.2063 5.56572 18.2997 5.60344C18.3931 5.64117 18.4779 5.69731 18.5491 5.76853C18.6203 5.83975 18.6765 5.92458 18.7142 6.01797C18.7519 6.11136 18.7704 6.21139 18.7687 6.31209C18.7669 6.41279 18.7448 6.51211 18.7039 6.6041C18.6629 6.6961 18.6038 6.7789 18.5301 6.84757L13.0601 12.3176L18.5301 17.7876C18.6038 17.8562 18.6629 17.939 18.7039 18.031C18.7448 18.123 18.7669 18.2223 18.7687 18.323C18.7704 18.4237 18.7519 18.5238 18.7142 18.6172C18.6765 18.7106 18.6203 18.7954 18.5491 18.8666C18.4779 18.9378 18.3931 18.994 18.2997 19.0317C18.2063 19.0694 18.1063 19.0879 18.0056 19.0862C17.9048 19.0844 17.8055 19.0623 17.7135 19.0213C17.6215 18.9804 17.5387 18.9213 17.4701 18.8476L12.0001 13.3776L6.53007 18.8476C6.3879 18.98 6.19985 19.0522 6.00555 19.0487C5.81125 19.0453 5.62586 18.9666 5.48845 18.8292C5.35104 18.6918 5.27233 18.5064 5.2689 18.3121C5.26547 18.1178 5.33759 17.9297 5.47007 17.7876L10.9401 12.3176L5.47007 6.84757C5.32962 6.70694 5.25073 6.51632 5.25073 6.31757C5.25073 6.11882 5.32962 5.92819 5.47007 5.78757Z" fill="white"/>
</svg>
