<svg width="20" height="20" viewBox="0 0 20 20" fill="none" xmlns="http://www.w3.org/2000/svg">
<path fill-rule="evenodd" clip-rule="evenodd" d="M7.81542 10.5716C7.69542 10.6808 7.54459 10.7349 7.39459 10.7349C7.22459 10.7349 7.05542 10.6658 6.93209 10.5308L5.41292 8.86409C5.18042 8.60909 5.19876 8.21324 5.45376 7.98157C5.70792 7.7474 6.10376 7.76657 6.33709 8.02156L7.85626 9.68825C8.08876 9.94409 8.07042 10.3391 7.81542 10.5716ZM17.5596 7.35074L15.1087 3.75157C14.7279 3.18824 14.0946 2.85157 13.4137 2.85157H6.59126C5.91126 2.85157 5.27792 3.18823 4.89792 3.7499L2.43876 7.35074C1.90459 8.13407 1.97709 9.17825 2.61626 9.89075L8.70458 16.5741C9.03542 16.9383 9.50708 17.1474 9.99875 17.1474C10.4904 17.1474 10.9621 16.9383 11.2921 16.5733L17.3812 9.88242C18.0229 9.17909 18.0962 8.13824 17.5596 7.35074Z" fill="white"/>
</svg>
