<svg width="16" height="19" viewBox="0 0 16 19" fill="none" xmlns="http://www.w3.org/2000/svg">
<path d="M3.30482 7.33777V5.34461L3.31166 5.1034C3.44778 2.63047 5.50168 0.67279 8.00599 0.682501L8.00502 0.683477C10.055 0.68373 11.7953 2.00046 12.4298 3.83289C12.5202 4.09383 12.3822 4.37828 12.1212 4.46863C11.8603 4.55895 11.5759 4.4209 11.4855 4.16004C10.986 2.71753 9.61491 1.6825 8.00404 1.6825H8.00209C5.96885 1.67463 4.31373 3.31552 4.30482 5.34852V7.33777C4.30478 7.61388 4.08094 7.83777 3.80482 7.83777C3.5287 7.83777 3.30486 7.61388 3.30482 7.33777Z" fill="white"/>
<path d="M14.4912 10.7572C14.4911 9.10836 13.1546 7.77215 11.5068 7.77189H4.48438C2.83653 7.77205 1.50012 9.1083 1.5 10.7572V14.6977L1.50391 14.852C1.58405 16.4294 2.88808 17.6839 4.48438 17.684H11.5068C13.1547 17.6838 14.4912 16.3467 14.4912 14.6977V10.7572ZM15.4912 14.6977C15.4912 16.8988 13.7071 18.6838 11.5068 18.684H4.48438C2.35266 18.6839 0.611457 17.0087 0.504883 14.9028L0.5 14.6977V10.7572C0.500124 8.55619 2.28407 6.77205 4.48438 6.77189H11.5068C13.7071 6.77215 15.4911 8.55625 15.4912 10.7572V14.6977Z" fill="white"/>
<path d="M7.49569 13.7489V11.707C7.49569 11.4308 7.71954 11.207 7.99569 11.207C8.27183 11.207 8.49569 11.4308 8.49569 11.707V13.7489C8.49564 14.025 8.2718 14.2489 7.99569 14.2489C7.71957 14.2489 7.49573 14.025 7.49569 13.7489Z" fill="white"/>
</svg>
